<svg xmlns="http://www.w3.org/2000/svg" version="1.1" xmlns:xlink="http://www.w3.org/1999/xlink" xmlns:svgjs="http://svgjs.dev/svgjs" width="308.7612359841165" height="304.915625" viewBox="0 0 2000 2250"><g transform="matrix(1,0,0,1,0.,0)"><svg viewBox="0 0 320 360" data-background-color="#ffffff" preserveAspectRatio="xMidYMid meet" height="2250" width="2000" xmlns="http://www.w3.org/2000/svg" xmlns:xlink="http://www.w3.org/1999/xlink"><g id="tight-bounds" transform="matrix(1,0,0,1,-0.00020999999998139174,0)"><svg viewBox="0 0 320 360" height="360" width="320"><g><svg></svg></g><g><svg viewBox="0 0 320 360" height="360" width="320"><g><path transform="translate(-17.77778,2.22222) scale(3.55556,3.55556)" d="M95 52c0-12.871-5.692-24.431-14.682-32.318-7.887-8.99-19.447-14.682-32.318-14.682-23.71 0-43 19.29-43 43 0 12.868 5.69 24.426 14.677 32.313 7.887 8.993 19.449 14.687 32.323 14.687 0.084 0 0.166-0.006 0.25-0.006 0.084 0 0.166 0.006 0.25 0.006 23.472 0 42.5-19.028 42.5-42.5 0-0.084-0.006-0.166-0.006-0.25 0-0.084 0.006-0.166 0.006-0.25zM21.828 73.371c-4.245-5.978-6.77-13.259-6.822-21.121 0.135-20.511 16.732-37.109 37.244-37.244 7.862 0.052 15.144 2.577 21.121 6.822 6.853 6.645 11.129 15.93 11.129 26.172 0 20.126-16.374 36.5-36.5 36.5-10.242 0-19.527-4.276-26.172-11.129zM6 48c0-23.159 18.841-42 42-42 9.858 0 18.926 3.422 26.1 9.13-6.463-3.888-14.024-6.13-22.1-6.13-23.71 0-43 19.29-43 43 0 8.074 2.241 15.633 6.127 22.095-5.706-7.172-9.127-16.239-9.127-26.095zM52 89c-10.08 0-19.227-4.055-25.905-10.615 6.174 4.469 13.743 7.115 21.905 7.115 20.678 0 37.5-16.822 37.5-37.5 0-8.162-2.646-15.731-7.115-21.905 6.56 6.678 10.615 15.825 10.615 25.905 0 20.402-16.598 37-37 37z" fill="#336a86" fill-rule="nonzero" stroke="none" stroke-width="1" stroke-linecap="butt" stroke-linejoin="miter" stroke-miterlimit="10" stroke-dasharray="" stroke-dashoffset="0" font-family="none" font-weight="none" font-size="none" text-anchor="none" style="mix-blend-mode: normal" data-fill-palette-color="tertiary"></path></g><g transform="matrix(1,0,0,1,122.82319916026904,99)"><svg viewBox="0 0 74.3536016794619 162" height="162" width="74.3536016794619"><g><svg viewBox="0 0 118.1559633027523 257.4356268249627" height="162" width="74.3536016794619"><g transform="matrix(1,0,0,1,0,95.43562682496272)"><svg viewBox="0 0 118.1559633027523 162" height="162" width="118.1559633027523"><g id="textblocktransform"><svg viewBox="0 0 118.1559633027523 162" height="162" width="118.1559633027523" id="textblock"><g><svg viewBox="0 0 118.1559633027523 162" height="162" width="118.1559633027523"><g transform="matrix(1,0,0,1,0,0)"><svg width="118.1559633027523" viewBox="0.65 -21.6 23.85 32.7" height="162" data-palette-color="#336a86"><path d="M3.8-17.4Q3.35-17.4 2.95-17.32 2.55-17.25 2.15-17.25L2.15-17.25Q1.6-17.25 1.13-17.75 0.65-18.25 0.65-18.65L0.65-18.65Q0.65-19.95 1.95-20.68 3.25-21.4 4.6-21.4L4.6-21.4Q5.75-21.4 6.98-20.63 8.2-19.85 8.8-18.65L8.8-18.65Q10.1-20.2 12-20.9 13.9-21.6 15.95-21.6L15.95-21.6Q18.25-21.6 20.23-20.15 22.2-18.7 23.35-16.48 24.5-14.25 24.5-12.05L24.5-12.05Q24.5-9.9 24.05-8.22 23.6-6.55 22.45-4.85L22.45-4.85Q21.15-3.05 18.98-1.9 16.8-0.75 13.8-0.75L13.8-0.75Q13-0.75 11.85-1.18 10.7-1.6 9.95-2.1L9.95-2.1Q9.6 1.3 9.6 3.8L9.6 3.8Q9.6 5.3 9.75 6.65L9.75 6.65Q9.85 8.25 9.85 8.95L9.85 8.95Q9.85 10.05 9.1 10.58 8.35 11.1 7.45 11.1L7.45 11.1Q5.65 11.1 5.08 10.13 4.5 9.15 4.5 7.35L4.5 7.35Q4.7 3.05 5-0.6L5-0.6Q5.3-5.1 5.3-14.5L5.3-14.5Q5.3-15.4 4.95-16.4 4.6-17.4 3.8-17.4L3.8-17.4ZM10.15-7.05Q10.4-6.1 11.58-5.48 12.75-4.85 13.7-4.85L13.7-4.85Q16.55-4.85 17.95-6.4L17.95-6.4Q19-7.5 19.33-8.55 19.65-9.6 19.65-11.9L19.65-11.9Q19.65-13.7 18.95-14.93 18.25-16.15 17.25-16.73 16.25-17.3 15.35-17.3L15.35-17.3Q13.3-17.3 12.03-16.07 10.75-14.85 10.4-12.75L10.4-12.75Q10.15-11.1 10.15-7.05L10.15-7.05Z" opacity="1" transform="matrix(1,0,0,1,0,0)" fill="#336a86" class="wordmark-text-0" data-fill-palette-color="primary" id="text-0"></path></svg></g></svg></g></svg></g></svg></g><g transform="matrix(1,0,0,1,22.56778899082569,0)"><svg viewBox="0 0 73.02038532110092 82.47562682496272" height="82.47562682496272" width="73.02038532110092"><g><svg xmlns="http://www.w3.org/2000/svg" data-name="Glyph Icon" viewBox="7.21 4 49.58 56" x="0" y="0" height="82.47562682496272" width="73.02038532110092" class="icon-icon-0" data-fill-palette-color="accent" id="icon-0"><path d="M49.13 20.84l-16-9.26V4L55.7 17.05ZM32 50.52L16 41.26V22.74l16-9.26 16 9.26V41.26ZM30.91 11.58l-16 9.26L8.3 17.05 30.91 4ZM13.77 22.74V41.26L7.21 45.05V19Zm1.1 20.42l16 9.26V60L8.3 47Zm18.22 9.26l16-9.26L55.7 47 33.09 60ZM50.23 41.26V22.74L56.79 19v26.1Z" fill="#283132" data-fill-palette-color="accent"></path></svg></g></svg></g><g></g></svg></g></svg></g></svg></g><defs></defs></svg><rect width="320" height="360" fill="none" stroke="none" visibility="hidden"></rect></g></svg></g></svg>